#!OML:ASF F:\VICON\USERDATA\INSTALL\rory3\rory3.ASF
:FULLY-SPECIFIED
:DEGREES
261
root 1.32996 17.8189 -17.4441 2.29541 -0.192172 -0.251639
lowerback 6.14208 -0.292772 -1.16234
upperback -0.643283 -0.381507 2.36195
thorax -4.08959 -0.13641 3.13807
lowerneck -18.5293 -4.12696 -9.84229
upperneck 15.9165 -4.42345 7.34214
head 8.3856 -1.953 3.53213
rclavicle -9.0944e-015 1.98785e-014
rhumerus -33.8512 -11.0661 -77.9758
rradius 34.5197
rwrist 5.46535
rhand -13.591 13.3098
rfingers 7.12502
rthumb 12.5235 -16.2949
lclavicle -9.0944e-015 1.98785e-014
lhumerus -34.1502 12.0304 80.0003
lradius 27.8848
lwrist -7.18507
lhand -17.6823 23.4815
lfingers 7.12502
lthumb 8.57697 53.2873
rfemur -7.44158 3.45374 20.2688
rtibia 19.6794
rfoot -9.13185 -8.98157
rtoes 2.83448
lfemur -7.82069 -2.8954 -20.8854
ltibia 19.6563
lfoot -11.115 3.49051
ltoes 3.45517
262
root 1.32983 17.8235 -17.4416 2.26065 -0.405395 -0.358551
lowerback 6.03017 -0.219792 -1.08956
upperback -0.619104 -0.278313 2.38172
thorax -4.00805 -0.0877819 3.10615
lowerneck -18.545 -4.13412 -9.68796
upperneck 15.9409 -4.43224 7.13018
head 8.38859 -1.96894 3.43273
rclavicle 3.13086e-015 -7.95139e-016
rhumerus -33.6803 -10.9001 -78.1514
rradius 34.7037
rwrist 5.22334
rhand -13.5683 12.9725
rfingers 7.12502
rthumb 12.5454 -16.6309
lclavicle 3.13086e-015 -7.95139e-016
lhumerus -34.058 11.7454 80.1389
lradius 29.2095
lwrist -8.3655
lhand -13.8416 30.0481
lfingers 7.12502
lthumb 12.2819 59.6674
rfemur -7.39703 3.69761 20.3841
rtibia 19.6392
rfoot -9.17542 -9.02737
rtoes 2.71054
lfemur -7.74984 -2.83371 -20.7934
ltibia 19.5743
lfoot -11.0614 3.72584
ltoes 3.11146
263
root 1.33033 17.8271 -17.4388 2.20509 -0.529037 -0.360914
lowerback 5.97512 -0.168281 -1.08048
upperback -0.631543 -0.20962 2.361
thorax -3.99424 -0.0541201 3.07258
lowerneck -18.5552 -4.17077 -9.78008
upperneck 16.1242 -4.47141 7.1632
head 8.45896 -1.99074 3.45604
rclavicle -8.84592e-015 -2.38542e-015
rhumerus -33.636 -10.7924 -78.2894
rradius 34.9768
rwrist 5.05396
rhand -13.7739 12.5826
rfingers 7.12502
rthumb 12.3471 -17.0328
lclavicle -8.84592e-015 -2.38542e-015
lhumerus -33.9521 11.4743 80.2472
lradius 29.8715
lwrist -8.52847
lhand -12.3377 32.6658
lfingers 7.12502
lthumb 13.7316 62.1927
rfemur -7.34158 3.82245 20.3931
rtibia 19.6271
rfoot -9.1359 -9.06539
rtoes 2.53764
lfemur -7.66853 -2.82454 -20.8115
ltibia 19.4985
lfoot -11.0022 3.93352
ltoes 2.28746
264
root 1.33002 17.8215 -17.4389 2.12834 -0.664711 -0.260817
lowerback 5.89391 -0.136529 -1.21984
upperback -0.591616 -0.178203 2.35495
thorax -3.90864 -0.0369779 3.14096
lowerneck -18.4642 -4.18709 -9.92553
upperneck 16.1314 -4.4756 7.22423
head 8.45094 -1.99745 3.50112
rclavicle 2.03754e-015 6.36111e-015
rhumerus -33.537 -10.6362 -78.401
rradius 35.2462
rwrist 4.87891
rhand -14.0121 12.7558
rfingers 7.12502
rthumb 12.1174 -16.8733
lclavicle 2.03754e-015 6.36111e-015
lhumerus -33.7685 11.4725 80.3779
lradius 30.2306
lwrist -8.19344
lhand -12.6044 32.9565
lfingers 7.12502
lthumb 13.4745 62.5006
rfemur -7.27371 3.8862 20.2879
rtibia 19.622
rfoot -9.12894 -8.97281
rtoes 2.96706
lfemur -7.48688 -2.89882 -20.9136
ltibia 19.4341
lfoot -11.002 4.09127
ltoes 2.32616
